<svg viewBox="0 0 16 16" xmlns="http://www.w3.org/2000/svg">
	<style type="text/css">
		.st0{fill:#FFFFFF;}
		.st1{fill:#DE006F;}
	</style>
	
	<circle class="st0" cx="8" cy="8" r="7.2"/>
	<path class="st1" d="M11.581,7.274C11.19,7.156,10.8,7.075,10.405,7.026c0.039-0.086,0.069-0.173,0.089-0.262c0.15,0.005,0.304,0.014,0.47,0.032c1.492,0.166,2.548,0.815,2.937,1.173c0.011,0.011,0.026,0.016,0.04,0.016c0.016,0,0.032-0.006,0.044-0.019c0.022-0.024,0.021-0.062-0.004-0.084c-0.399-0.367-1.482-1.034-3.004-1.203c-0.163-0.018-0.316-0.027-0.463-0.032c0.007-0.053,0.011-0.107,0.011-0.161c0-0.04-0.002-0.08-0.006-0.12c0.32,0.004,0.668,0.025,1.038,0.074c1.299,0.172,1.961,0.617,2.346,0.937c0.011,0.009,0.024,0.014,0.038,0.014c0.017,0,0.034-0.007,0.046-0.021c0.021-0.025,0.018-0.063-0.008-0.084c-0.396-0.329-1.077-0.787-2.406-0.964c-0.381-0.051-0.74-0.072-1.07-0.075c-0.043-0.225-0.147-0.444-0.307-0.643l0.203-1.579c0.014-0.108-0.038-0.212-0.132-0.266c-0.094-0.054-0.21-0.046-0.296,0.02L8.688,4.766C8.55,4.746,8.215,4.702,8,4.702c-0.215,0-0.55,0.044-0.688,0.064L6.03,3.779c-0.086-0.066-0.202-0.074-0.296-0.02C5.64,3.813,5.588,3.917,5.602,4.025l0.203,1.579c-0.16,0.199-0.264,0.417-0.307,0.643c-0.33,0.003-0.69,0.025-1.07,0.075c-1.329,0.176-2.01,0.634-2.406,0.964C1.996,7.306,1.993,7.344,2.014,7.369C2.025,7.383,2.042,7.39,2.059,7.39c0.013,0,0.027-0.004,0.038-0.014c0.385-0.32,1.047-0.765,2.346-0.937C4.813,6.39,5.161,6.369,5.481,6.365c-0.004,0.04-0.006,0.08-0.006,0.12c0,0.054,0.004,0.108,0.011,0.161c-0.148,0.005-0.3,0.014-0.463,0.032c-1.522,0.17-2.604,0.836-3.004,1.203c-0.024,0.022-0.026,0.06-0.004,0.084c0.012,0.013,0.028,0.019,0.044,0.019c0.014,0,0.029-0.005,0.04-0.016c0.389-0.357,1.445-1.007,2.937-1.173c0.166-0.019,0.321-0.027,0.47-0.032c0.02,0.09,0.05,0.178,0.089,0.264c-0.397,0.049-0.791,0.13-1.177,0.247C3.142,7.66,2.369,8.191,2.022,8.473C1.996,8.494,1.993,8.531,2.013,8.557c0.012,0.014,0.029,0.022,0.046,0.022c0.013,0,0.026-0.004,0.037-0.013c0.34-0.276,1.099-0.797,2.356-1.177c0.399-0.121,0.797-0.201,1.2-0.248c0.08,0.143,0.184,0.278,0.314,0.403c-0.87,0.588-1.383,1.511-1.383,2.506c0,1.112,0.639,1.815,1.899,2.089c0.08,0.018,0.159-0.033,0.177-0.114s-0.033-0.159-0.114-0.177c-1.121-0.244-1.665-0.832-1.665-1.799c0-0.953,0.527-1.836,1.41-2.36c0.042-0.025,0.069-0.069,0.072-0.118c0.003-0.049-0.018-0.096-0.057-0.126c-0.345-0.27-0.535-0.611-0.535-0.96c0-0.256,0.104-0.512,0.3-0.738C6.1,5.715,6.113,5.672,6.108,5.63L5.906,4.058L7.18,5.04c0.032,0.025,0.073,0.036,0.113,0.029C7.298,5.068,7.751,4.999,8,4.999c0.249,0,0.702,0.069,0.707,0.07C8.747,5.075,8.788,5.065,8.82,5.04l1.274-0.982L9.892,5.63C9.887,5.672,9.9,5.715,9.927,5.747c0.196,0.226,0.3,0.481,0.3,0.738c0,0.349-0.19,0.69-0.535,0.96c-0.039,0.03-0.06,0.078-0.057,0.126c0.003,0.049,0.03,0.093,0.072,0.118c0.883,0.524,1.41,1.407,1.41,2.36c0,1.317-0.991,1.931-3.119,1.931c-0.573,0-1.04-0.466-1.04-1.04V8.861c0-0.573,0.466-1.04,1.04-1.04c0.573,0,1.04,0.466,1.04,1.04v1.782c0,0.409-0.333,0.743-0.743,0.743c-0.409,0-0.743-0.333-0.743-0.743V8.861c0-0.082-0.066-0.149-0.149-0.149S7.257,8.779,7.257,8.861v1.782c0,0.573,0.466,1.04,1.04,1.04c0.573,0,1.04-0.466,1.04-1.04V8.861c0-0.737-0.6-1.337-1.337-1.337s-1.337,0.6-1.337,1.337v2.079c0,0.737,0.6,1.337,1.337,1.337c2.298,0,3.416-0.729,3.416-2.228c0-0.995-0.513-1.918-1.383-2.506c0.13-0.124,0.235-0.26,0.314-0.403c0.403,0.047,0.801,0.127,1.2,0.248c1.257,0.38,2.016,0.901,2.356,1.177c0.011,0.009,0.024,0.013,0.037,0.013c0.017,0,0.034-0.008,0.046-0.022c0.021-0.026,0.017-0.063-0.009-0.084C13.631,8.191,12.858,7.66,11.581,7.274z"/>
</svg>
