<svg viewBox="0 0 110 110" xmlns="http://www.w3.org/2000/svg">
	<path d="M84.846,48.951c-3.262-0.987-6.514-1.661-9.805-2.065c0.322-0.713,0.572-1.443,0.738-2.187c1.246,0.041,2.536,0.114,3.918,0.268c12.429,1.385,21.231,6.795,24.473,9.773c0.095,0.088,0.215,0.131,0.335,0.131c0.133,0,0.267-0.054,0.365-0.16c0.185-0.202,0.172-0.514-0.03-0.7c-3.329-3.06-12.349-8.615-25.032-10.029c-1.358-0.151-2.63-0.226-3.861-0.269c0.057-0.445,0.093-0.892,0.093-1.342c0-0.333-0.017-0.665-0.049-0.996c2.667,0.03,5.569,0.212,8.647,0.62c10.821,1.436,16.34,5.145,19.551,7.811c0.093,0.077,0.204,0.114,0.316,0.114c0.142,0,0.283-0.061,0.381-0.179c0.175-0.21,0.146-0.523-0.065-0.697c-3.304-2.743-8.978-6.56-20.053-8.03c-3.172-0.421-6.168-0.603-8.919-0.626c-0.359-1.878-1.222-3.696-2.556-5.355l1.691-13.157c0.115-0.896-0.318-1.766-1.101-2.216c-0.785-0.451-1.753-0.385-2.468,0.167l-10.676,8.224c-1.157-0.164-3.943-0.532-5.738-0.532c-1.794,0-4.579,0.367-5.737,0.532l-10.677-8.224c-0.716-0.552-1.685-0.617-2.468-0.168c-0.784,0.45-1.216,1.32-1.101,2.216l1.69,13.157c-1.334,1.659-2.197,3.477-2.556,5.355c-2.752,0.023-5.747,0.205-8.92,0.626c-11.075,1.47-16.748,5.287-20.053,8.031c-0.21,0.175-0.239,0.487-0.065,0.697c0.098,0.118,0.239,0.179,0.381,0.179c0.111,0,0.223-0.037,0.316-0.114c3.21-2.665,8.729-6.375,19.551-7.811c3.078-0.409,5.98-0.59,8.647-0.62c-0.031,0.331-0.049,0.663-0.049,0.996c0,0.45,0.036,0.897,0.093,1.342c-1.23,0.044-2.502,0.119-3.86,0.27C17.51,45.395,8.491,50.951,5.16,54.011c-0.201,0.185-0.215,0.498-0.029,0.7c0.098,0.106,0.231,0.16,0.365,0.16c0.12,0,0.24-0.043,0.335-0.131c3.241-2.979,12.044-8.389,24.472-9.773c1.383-0.155,2.673-0.228,3.919-0.269c0.167,0.748,0.418,1.482,0.742,2.198c-3.312,0.407-6.592,1.082-9.809,2.055c-10.64,3.218-17.08,7.64-19.971,9.991c-0.212,0.172-0.244,0.483-0.072,0.696c0.098,0.12,0.241,0.183,0.385,0.183c0.11,0,0.22-0.037,0.312-0.111c2.835-2.304,9.155-6.642,19.633-9.811c3.327-1.006,6.644-1.678,10.003-2.066c0.665,1.188,1.535,2.318,2.62,3.355c-7.25,4.899-11.529,12.594-11.529,20.886c0,9.267,5.325,15.123,15.826,17.407c0.67,0.146,1.328-0.278,1.473-0.947c0.145-0.668-0.278-1.328-0.947-1.473c-9.338-2.03-13.877-6.934-13.877-14.988c0-7.944,4.394-15.296,11.754-19.668c0.351-0.209,0.577-0.577,0.603-0.985c0.026-0.408-0.151-0.802-0.472-1.054c-2.876-2.25-4.459-5.09-4.459-7.996c0-2.137,0.865-4.263,2.503-6.148c0.232-0.267,0.338-0.619,0.293-0.969l-1.683-13.102l10.62,8.18c0.268,0.206,0.61,0.296,0.943,0.243c0.038-0.006,3.813-0.58,5.889-0.58c2.074,0,5.852,0.575,5.889,0.581c0.336,0.05,0.675-0.037,0.943-0.243l10.62-8.181l-1.684,13.102c-0.044,0.35,0.062,0.702,0.294,0.969c1.637,1.885,2.502,4.011,2.502,6.148c0,2.906-1.584,5.746-4.458,7.996c-0.322,0.252-0.498,0.646-0.472,1.054c0.026,0.408,0.251,0.776,0.602,0.985c7.36,4.371,11.754,11.724,11.754,19.668c0,10.977-8.258,16.089-25.99,16.089c-4.777,0-8.663-3.886-8.663-8.663V62.173c0-4.777,3.886-8.663,8.663-8.663c4.777,0,8.663,3.886,8.663,8.663v14.851c0,3.412-2.776,6.188-6.188,6.188s-6.188-2.776-6.188-6.188V62.173c0-0.684-0.554-1.238-1.238-1.238s-1.238,0.554-1.238,1.238v14.851c0,4.777,3.886,8.663,8.663,8.663c4.777,0,8.663-3.886,8.663-8.663V62.173c0-6.142-4.997-11.139-11.139-11.139s-11.139,4.997-11.139,11.139v17.327c0,6.142,4.997,11.139,11.139,11.139c19.154,0,28.465-6.072,28.465-18.564c0-8.292-4.278-15.987-11.528-20.886c1.084-1.037,1.955-2.167,2.62-3.355c3.36,0.388,6.676,1.059,10.003,2.065c10.477,3.169,16.798,7.508,19.633,9.812c0.092,0.074,0.202,0.111,0.312,0.111c0.144,0,0.286-0.063,0.384-0.183c0.173-0.213,0.14-0.524-0.072-0.696C101.926,56.592,95.486,52.17,84.846,48.951z"/>
</svg>